<svg width="204" height="36" viewBox="0 0 204 36" fill="none" xmlns="http://www.w3.org/2000/svg">
<path d="M0.533203 28V2.30078H3.52148V25.293H14.8594V28H0.533203ZM35.4258 18.3496C35.4258 21.4902 34.6348 23.9453 33.0527 25.7148C31.4707 27.4727 29.2852 28.3516 26.4961 28.3516C24.7734 28.3516 23.2441 27.9473 21.9082 27.1387C20.5723 26.3301 19.541 25.1699 18.8145 23.6582C18.0879 22.1465 17.7246 20.377 17.7246 18.3496C17.7246 15.209 18.5098 12.7656 20.0801 11.0195C21.6504 9.26172 23.8301 8.38281 26.6191 8.38281C29.3145 8.38281 31.4531 9.2793 33.0352 11.0723C34.6289 12.8652 35.4258 15.291 35.4258 18.3496ZM20.748 18.3496C20.748 20.8105 21.2402 22.6855 22.2246 23.9746C23.209 25.2637 24.6562 25.9082 26.5664 25.9082C28.4766 25.9082 29.9238 25.2695 30.9082 23.9922C31.9043 22.7031 32.4023 20.8223 32.4023 18.3496C32.4023 15.9004 31.9043 14.043 30.9082 12.7773C29.9238 11.5 28.4648 10.8613 26.5312 10.8613C24.6211 10.8613 23.1797 11.4883 22.207 12.7422C21.2344 13.9961 20.748 15.8652 20.748 18.3496ZM48.2578 28.3516C45.4688 28.3516 43.3066 27.4961 41.7715 25.7852C40.248 24.0625 39.4863 21.6309 39.4863 18.4902C39.4863 15.2676 40.2598 12.7773 41.8066 11.0195C43.3652 9.26172 45.5801 8.38281 48.4512 8.38281C49.377 8.38281 50.3027 8.48242 51.2285 8.68164C52.1543 8.88086 52.8809 9.11523 53.4082 9.38477L52.5117 11.8633C51.8672 11.6055 51.1641 11.3945 50.4023 11.2305C49.6406 11.0547 48.9668 10.9668 48.3809 10.9668C44.4668 10.9668 42.5098 13.4629 42.5098 18.4551C42.5098 20.8223 42.9844 22.6387 43.9336 23.9043C44.8945 25.1699 46.3125 25.8027 48.1875 25.8027C49.793 25.8027 51.4395 25.457 53.127 24.7656V27.3496C51.8379 28.0176 50.2148 28.3516 48.2578 28.3516ZM69.5625 28L68.9824 25.2578H68.8418C67.8809 26.4648 66.9199 27.2852 65.959 27.7188C65.0098 28.1406 63.8203 28.3516 62.3906 28.3516C60.4805 28.3516 58.9805 27.8594 57.8906 26.875C56.8125 25.8906 56.2734 24.4902 56.2734 22.6738C56.2734 18.7832 59.3848 16.7441 65.6074 16.5566L68.877 16.4512V15.2559C68.877 13.7441 68.5488 12.6309 67.8926 11.916C67.248 11.1895 66.2109 10.8262 64.7812 10.8262C63.1758 10.8262 61.3594 11.3184 59.332 12.3027L58.4355 10.0703C59.3848 9.55469 60.4219 9.15039 61.5469 8.85742C62.6836 8.56445 63.8203 8.41797 64.957 8.41797C67.2539 8.41797 68.9531 8.92773 70.0547 9.94727C71.168 10.9668 71.7246 12.6016 71.7246 14.8516V28H69.5625ZM62.9707 25.9434C64.7871 25.9434 66.2109 25.4453 67.2422 24.4492C68.2852 23.4531 68.8066 22.0586 68.8066 20.2656V18.5254L65.8887 18.6484C63.5684 18.7305 61.8926 19.0938 60.8613 19.7383C59.8418 20.3711 59.332 21.3613 59.332 22.709C59.332 23.7637 59.6484 24.5664 60.2812 25.1172C60.9258 25.668 61.8223 25.9434 62.9707 25.9434ZM80.6719 28H77.7539V0.648438H80.6719V28ZM89.7773 28H86.8594V8.73438H89.7773V28ZM86.6133 3.51367C86.6133 2.8457 86.7773 2.35937 87.1055 2.05469C87.4336 1.73828 87.8438 1.58008 88.3359 1.58008C88.8047 1.58008 89.209 1.73828 89.5488 2.05469C89.8887 2.37109 90.0586 2.85742 90.0586 3.51367C90.0586 4.16992 89.8887 4.66211 89.5488 4.99023C89.209 5.30664 88.8047 5.46484 88.3359 5.46484C87.8438 5.46484 87.4336 5.30664 87.1055 4.99023C86.7773 4.66211 86.6133 4.16992 86.6133 3.51367ZM108.287 28H94.3125V26.0137L104.824 11.002H94.9629V8.73438H108.023V11.002L97.6523 25.7324H108.287V28ZM124.652 28L124.072 25.2578H123.932C122.971 26.4648 122.01 27.2852 121.049 27.7188C120.1 28.1406 118.91 28.3516 117.48 28.3516C115.57 28.3516 114.07 27.8594 112.98 26.875C111.902 25.8906 111.363 24.4902 111.363 22.6738C111.363 18.7832 114.475 16.7441 120.697 16.5566L123.967 16.4512V15.2559C123.967 13.7441 123.639 12.6309 122.982 11.916C122.338 11.1895 121.301 10.8262 119.871 10.8262C118.266 10.8262 116.449 11.3184 114.422 12.3027L113.525 10.0703C114.475 9.55469 115.512 9.15039 116.637 8.85742C117.773 8.56445 118.91 8.41797 120.047 8.41797C122.344 8.41797 124.043 8.92773 125.145 9.94727C126.258 10.9668 126.814 12.6016 126.814 14.8516V28H124.652ZM118.061 25.9434C119.877 25.9434 121.301 25.4453 122.332 24.4492C123.375 23.4531 123.896 22.0586 123.896 20.2656V18.5254L120.979 18.6484C118.658 18.7305 116.982 19.0938 115.951 19.7383C114.932 20.3711 114.422 21.3613 114.422 22.709C114.422 23.7637 114.738 24.5664 115.371 25.1172C116.016 25.668 116.912 25.9434 118.061 25.9434ZM130.295 35.5586C129.064 35.5586 127.992 35.4297 127.078 35.1719V30.6367C128.016 30.8711 128.871 30.9883 129.645 30.9883C130.84 30.9883 131.695 30.6133 132.211 29.8633C132.727 29.125 132.984 27.9648 132.984 26.3828V2.30078H138.434V26.3477C138.434 29.3477 137.748 31.6328 136.377 33.2031C135.006 34.7734 132.979 35.5586 130.295 35.5586ZM148.752 18.1387C148.752 20.084 149.068 21.5547 149.701 22.5508C150.346 23.5469 151.389 24.0449 152.83 24.0449C154.26 24.0449 155.285 23.5527 155.906 22.5684C156.539 21.5723 156.855 20.0957 156.855 18.1387C156.855 16.1934 156.539 14.7344 155.906 13.7617C155.273 12.7891 154.236 12.3027 152.795 12.3027C151.365 12.3027 150.334 12.7891 149.701 13.7617C149.068 14.7227 148.752 16.1816 148.752 18.1387ZM162.34 18.1387C162.34 21.3379 161.496 23.8398 159.809 25.6445C158.121 27.4492 155.771 28.3516 152.76 28.3516C150.873 28.3516 149.209 27.9414 147.768 27.1211C146.326 26.2891 145.219 25.0996 144.445 23.5527C143.672 22.0059 143.285 20.2012 143.285 18.1387C143.285 14.9277 144.123 12.4316 145.799 10.6504C147.475 8.86914 149.83 7.97852 152.865 7.97852C154.752 7.97852 156.416 8.38867 157.857 9.20898C159.299 10.0293 160.406 11.207 161.18 12.7422C161.953 14.2773 162.34 16.0762 162.34 18.1387ZM177.703 7.97852C180.023 7.97852 181.84 8.88672 183.152 10.7031C184.465 12.5078 185.121 14.9863 185.121 18.1387C185.121 21.3848 184.441 23.8984 183.082 25.6797C181.734 27.4609 179.895 28.3516 177.562 28.3516C175.254 28.3516 173.443 27.5137 172.131 25.8379H171.762L170.865 28H166.77V0.648438H172.131V7.01172C172.131 7.82031 172.061 9.11523 171.92 10.8965H172.131C173.385 8.95117 175.242 7.97852 177.703 7.97852ZM175.98 12.2676C174.656 12.2676 173.689 12.6777 173.08 13.498C172.471 14.3066 172.154 15.6484 172.131 17.5234V18.1035C172.131 20.2129 172.441 21.7246 173.062 22.6387C173.695 23.5527 174.691 24.0098 176.051 24.0098C177.152 24.0098 178.025 23.5059 178.67 22.498C179.326 21.4785 179.654 20.002 179.654 18.0684C179.654 16.1348 179.326 14.6875 178.67 13.7266C178.014 12.7539 177.117 12.2676 175.98 12.2676ZM203.262 22.1641C203.262 24.1797 202.559 25.7148 201.152 26.7695C199.758 27.8242 197.666 28.3516 194.877 28.3516C193.447 28.3516 192.229 28.252 191.221 28.0527C190.213 27.8652 189.27 27.584 188.391 27.209V22.7793C189.387 23.248 190.506 23.6406 191.748 23.957C193.002 24.2734 194.104 24.4316 195.053 24.4316C196.998 24.4316 197.971 23.8691 197.971 22.7441C197.971 22.3223 197.842 21.9824 197.584 21.7246C197.326 21.4551 196.881 21.1562 196.248 20.8281C195.615 20.4883 194.771 20.0957 193.717 19.6504C192.205 19.0176 191.092 18.4316 190.377 17.8926C189.674 17.3535 189.158 16.7383 188.83 16.0469C188.514 15.3438 188.355 14.4824 188.355 13.4629C188.355 11.7168 189.029 10.3691 190.377 9.41992C191.736 8.45898 193.658 7.97852 196.143 7.97852C198.51 7.97852 200.812 8.49414 203.051 9.52539L201.434 13.3926C200.449 12.9707 199.529 12.625 198.674 12.3555C197.818 12.0859 196.945 11.9512 196.055 11.9512C194.473 11.9512 193.682 12.3789 193.682 13.2344C193.682 13.7148 193.934 14.1309 194.438 14.4824C194.953 14.834 196.072 15.3555 197.795 16.0469C199.33 16.668 200.455 17.248 201.17 17.7871C201.885 18.3262 202.412 18.9473 202.752 19.6504C203.092 20.3535 203.262 21.1914 203.262 22.1641Z" fill="white"/>
</svg>
